<svg id="Group_592" data-name="Group 592" xmlns="http://www.w3.org/2000/svg" width="63.379" height="62.916" viewBox="0 0 63.379 62.916">
  <g id="Group_591" data-name="Group 591" transform="translate(0)">
    <path id="Path_2262" data-name="Path 2262" d="M64.32,35.177A31.544,31.544,0,0,1,32.331,63.824,31.959,31.959,0,0,1,.941,31.928,31.594,31.594,0,0,1,33.228.918,31.486,31.486,0,0,1,64.32,30.451Z" transform="translate(-0.941 -0.913)" fill="none" fill-rule="evenodd"/>
    <g id="Group_590" data-name="Group 590" transform="translate(11.061 12.113)">
      <path id="Path_2263" data-name="Path 2263" d="M42.365,20.27V34.15H1.109V20.27H17.552v2.953H26.52V20.27Z" transform="translate(-1.109 -0.777)" fill="#fff"/>
      <path id="Path_2264" data-name="Path 2264" d="M29.51,8.689v-6.5H13.964v6.5H1.109v9.746H17.552V16.958H26.52v1.477H42.664V8.689ZM16.954,5.145h9.268V8.689H16.954Z" transform="translate(-1.109 -2.191)" fill="#fff"/>
    </g>
  </g>
</svg>
