<svg xmlns="http://www.w3.org/2000/svg" width="43.96" height="41.211" viewBox="0 0 43.96 41.211">
  <g id="noun-boutique-4810067" transform="translate(-16.611 -18.674)">
    <path id="Path_2269" data-name="Path 2269" d="M26.108,61.186H54.1a7.847,7.847,0,0,0,7.84-8.4,8.046,8.046,0,0,0-4.511-6.543L42.8,38.934a7.628,7.628,0,0,1,2.609-4.524A8.239,8.239,0,1,0,32.74,24.276a2.746,2.746,0,0,0,4.806,2.63,2.746,2.746,0,0,1,3.083-1.373,2.623,2.623,0,0,1,2.018,2.115,2.746,2.746,0,0,1-.865,2.643,13.127,13.127,0,0,0-4.5,8.568L22.332,46.335A7.792,7.792,0,0,0,18,53.414a8.019,8.019,0,0,0,8.108,7.772ZM24.79,51.251l15.18-7.593,15.18,7.593a2.348,2.348,0,0,1-1.05,4.442H25.84a2.348,2.348,0,0,1-1.05-4.442Z" transform="translate(-1.388 -1.301)" fill="#fff"/>
  </g>
</svg>
