<svg xmlns="http://www.w3.org/2000/svg" width="45.295" height="30.816" viewBox="0 0 45.295 30.816">
  <g id="noun-cafe-6962875" transform="translate(0 -15.988)">
    <g id="Group_593" data-name="Group 593" transform="translate(0 15.988)">
      <path id="Path_2266" data-name="Path 2266" d="M0,75.5A3.767,3.767,0,0,0,3.766,79.27H34A3.767,3.767,0,0,0,37.762,75.5v-.161H0Z" transform="translate(0 -48.454)" fill="#fff"/>
      <path id="Path_2267" data-name="Path 2267" d="M82.069,15.988H79.986V18.98h2.083a3.741,3.741,0,0,1,0,7.482H79.952a15.192,15.192,0,0,1-.425,2.992h2.534a6.733,6.733,0,0,0,.007-13.467Z" transform="translate(-43.5 -15.988)" fill="#fff"/>
      <path id="Path_2268" data-name="Path 2268" d="M21.925,40.889h1.258A14.429,14.429,0,0,0,37.61,26.462V15.988H7.508V26.47A14.429,14.429,0,0,0,21.934,40.9Z" transform="translate(-4.107 -15.988)" fill="#fff"/>
    </g>
  </g>
</svg>
