<svg xmlns="http://www.w3.org/2000/svg" width="52.683" height="47.175" viewBox="0 0 52.683 47.175">
  <g id="noun-park-3105648" transform="translate(-2.8 -7.7)">
    <g id="Group_587" data-name="Group 587" transform="translate(2.8 7.7)">
      <path id="Path_2241" data-name="Path 2241" d="M54.092,52.094H48.584v-3.56h1.78V45.807H31.45v2.726h1.78v3.56H21.937L21.1,37.3a6.207,6.207,0,0,0,3.5,1.057,6.293,6.293,0,0,0,6.286-6.175,8.387,8.387,0,0,0,4.395-7.343,8.163,8.163,0,0,0-2.782-6.175c0-.111.056-.278.056-.389a7.134,7.134,0,0,0-7.121-7.121,6.13,6.13,0,0,0-1,.111,5.95,5.95,0,0,0-5.4-3.56,5.861,5.861,0,0,0-5.4,3.56,6.13,6.13,0,0,0-1-.111A7.134,7.134,0,0,0,5.526,18.27c0,.111.056.278.056.389A8.252,8.252,0,0,0,2.8,24.834a8.387,8.387,0,0,0,4.395,7.343A6.3,6.3,0,0,0,16.986,37.3l-.834,14.8H9.976a1.391,1.391,0,0,0,0,2.782H54.092a1.391,1.391,0,1,0,0-2.782ZM35.4,48.533H46.415v3.56H35.4Z" transform="translate(-2.8 -7.7)" fill="#fff"/>
      <rect id="Rectangle_1115" data-name="Rectangle 1115" width="14.019" height="6.398" transform="translate(31.098 30.096)" fill="#fff"/>
    </g>
  </g>
</svg>
