<svg xmlns="http://www.w3.org/2000/svg" width="49.634" height="22.561" viewBox="0 0 49.634 22.561">
  <g id="noun-gym-7254488" transform="translate(-9.379 -31.535)">
    <path id="Path_2270" data-name="Path 2270" d="M13.889,49.583H11.634a2.255,2.255,0,0,1-2.255-2.255V38.3a2.253,2.253,0,0,1,2.255-2.255h2.255V49.586ZM52.246,33.79a2.253,2.253,0,0,0-2.255-2.255H45.478a2.255,2.255,0,0,0-2.255,2.255v6.768H25.172V33.79a2.253,2.253,0,0,0-2.255-2.255H18.4a2.255,2.255,0,0,0-2.255,2.255V51.84A2.253,2.253,0,0,0,18.4,54.1h4.513a2.255,2.255,0,0,0,2.255-2.255V45.073H43.223V51.84A2.253,2.253,0,0,0,45.478,54.1H49.99a2.255,2.255,0,0,0,2.255-2.255V33.79Zm4.513,2.255H54.5V49.583h2.255a2.255,2.255,0,0,0,2.255-2.255V38.3a2.253,2.253,0,0,0-2.255-2.255Z" transform="translate(0)" fill="#fff"/>
  </g>
</svg>
