<svg xmlns="http://www.w3.org/2000/svg" width="39.31" height="48.292" viewBox="0 0 39.31 48.292">
  <g id="noun-elevator-6824509" transform="translate(-16.082 -8.332)">
    <path id="Path_2259" data-name="Path 2259" d="M49.21,8.332H22.264a6.183,6.183,0,0,0-6.182,6.182V50.442a6.183,6.183,0,0,0,6.182,6.182H49.21a6.183,6.183,0,0,0,6.182-6.182V14.514A6.183,6.183,0,0,0,49.21,8.332Zm2.8,42.11a2.8,2.8,0,0,1-2.8,2.8H22.264a2.8,2.8,0,0,1-2.8-2.8V14.514a2.8,2.8,0,0,1,2.8-2.8H49.21a2.8,2.8,0,0,1,2.8,2.8ZM40.565,25.911a2.7,2.7,0,0,1-2.148,4.321H33.032a2.7,2.7,0,0,1-2.123-4.321l2.68-3.574a2.68,2.68,0,0,1,4.3,0Zm0,13.136-2.68,3.572a2.68,2.68,0,0,1-4.3,0l-2.68-3.574a2.7,2.7,0,0,1,2.148-4.321h5.408a2.7,2.7,0,0,1,2.1,4.321Z" fill="#fff"/>
  </g>
</svg>
