<svg xmlns="http://www.w3.org/2000/svg" width="45.04" height="40.213" viewBox="0 0 45.04 40.213">
  <g id="noun-supermarket-5557996" transform="translate(-30.54 -23.709)">
    <path id="Path_2261" data-name="Path 2261" d="M49.2,49.546H71.719l3.861-16.8H44.693Zm21.781,7.845a3.266,3.266,0,1,1-3.266,3.265A3.267,3.267,0,0,1,70.977,57.391ZM32.3,27.231a1.761,1.761,0,0,1,0-3.522h4.971A1.765,1.765,0,0,1,39,25.1l7.375,27.521H72.906a1.762,1.762,0,1,1,0,3.524H45.022v0a1.765,1.765,0,0,1-1.7-1.3l-7.4-27.613H32.3Zm15.2,30.16a3.266,3.266,0,1,1-3.266,3.265A3.266,3.266,0,0,1,47.5,57.391Z" transform="translate(0 0)" fill="#fff" fill-rule="evenodd"/>
  </g>
</svg>
