<svg xmlns="http://www.w3.org/2000/svg" width="44.142" height="44.142" viewBox="0 0 44.142 44.142">
  <g id="noun-parking-2508438" transform="translate(-11.97 -12.19)">
    <path id="Path_2252" data-name="Path 2252" d="M47.445,32.84h-6.9V52.819h4.792v-7.97h2.132c3.838,0,6.263-2.367,6.263-6.062S51.629,32.84,47.445,32.84ZM47.037,40.7H45.365V37h1.672a1.852,1.852,0,0,1,0,3.695Z" transform="translate(-11.945 -8.571)" fill="#fff" stroke="#fff" stroke-width="1"/>
    <path id="Path_2253" data-name="Path 2253" d="M34.035,12.69A21.571,21.571,0,1,0,55.612,34.255,21.571,21.571,0,0,0,34.035,12.69Zm0,39.649a18.08,18.08,0,1,0,0-.006Z" transform="translate(0)" fill="#fff" stroke="#fff" stroke-width="1"/>
  </g>
</svg>
