<svg xmlns="http://www.w3.org/2000/svg" width="38.286" height="38.286" viewBox="0 0 38.286 38.286">
  <g id="noun-pharmacy-7109882" transform="translate(-12.501 -12.5)">
    <path id="Path_2265" data-name="Path 2265" d="M43.9,12.5a6.882,6.882,0,0,1,6.883,6.883V43.9A6.882,6.882,0,0,1,43.9,50.786H19.384A6.882,6.882,0,0,1,12.5,43.9V19.383A6.882,6.882,0,0,1,19.384,12.5Zm0,3.191H19.382a3.69,3.69,0,0,0-3.691,3.693V43.9A3.69,3.69,0,0,0,19.384,47.6H43.906A3.69,3.69,0,0,0,47.6,43.9V19.382A3.69,3.69,0,0,0,43.9,15.691ZM23.667,28.453h4.786V23.667a1.6,1.6,0,0,1,1.6-1.6h3.191a1.6,1.6,0,0,1,1.6,1.6v4.786H39.62a1.6,1.6,0,0,1,1.6,1.6v3.191a1.6,1.6,0,0,1-1.6,1.6H34.834V39.62a1.6,1.6,0,0,1-1.6,1.6H30.049a1.6,1.6,0,0,1-1.6-1.6V34.834H23.667a1.6,1.6,0,0,1-1.6-1.6V30.048A1.6,1.6,0,0,1,23.667,28.453Z" transform="translate(0 0)" fill="#fff" fill-rule="evenodd"/>
  </g>
</svg>
