<svg xmlns="http://www.w3.org/2000/svg" width="48.546" height="46.521" viewBox="0 0 48.546 46.521">
  <g id="Group_589" data-name="Group 589" transform="translate(-294 -2752.813)">
    <g id="noun-rooftop-3971676" transform="translate(294 2752.813)">
      <g id="Group_588" data-name="Group 588" transform="translate(0 0)">
        <path id="Path_2254" data-name="Path 2254" d="M53,33.19V48.87H45.251a1.551,1.551,0,1,0,0,3.1H53v12.75h2.929V51.971h7.754a1.551,1.551,0,1,0,0-3.1H55.933V33.018h7.409L54.555,18.2,45.6,33.19Z" transform="translate(-30.368 -18.2)" fill="#fff"/>
        <path id="Path_2255" data-name="Path 2255" d="M68.646,31.5a1.655,1.655,0,0,0-1.551,1.206L65.027,44.6A2.965,2.965,0,0,1,62.1,47.007H55.9A1.912,1.912,0,0,0,54,48.9v5.858H70.024V33.223C69.852,32.362,69.507,31.672,68.646,31.5Z" transform="translate(-22.921 -8.584)" fill="#fff"/>
        <path id="Path_2256" data-name="Path 2256" d="M44.726,47.118A2.965,2.965,0,0,1,41.8,44.706L39.729,32.817c-.172-.689-.862-1.378-1.551-1.206A1.565,1.565,0,0,0,36.8,33.334V54.872H52.652V49.014a1.912,1.912,0,0,0-1.9-1.9H44.726Z" transform="translate(-35.357 -8.523)" fill="#fff"/>
        <path id="Path_2257" data-name="Path 2257" d="M37.061,32.612h11.2L56.359,19,36.544,30.372a1.155,1.155,0,0,0-.517,1.378A.969.969,0,0,0,37.061,32.612Z" transform="translate(-35.962 -17.622)" fill="#fff"/>
        <path id="Path_2258" data-name="Path 2258" d="M71.5,32.612A1.356,1.356,0,0,0,72.7,31.75a1.227,1.227,0,0,0-.517-1.378L52.2,19l8.1,13.612Z" transform="translate(-24.222 -17.622)" fill="#fff"/>
      </g>
    </g>
  </g>
</svg>
